Coordinates
version=1
nRows=29
nColumns=24
inDegrees=yes

Units are S.I. units (second, meters, Newtons, ...)
Angles are in degrees.

endheader
time	pelvis_tilt	pelvis_list	pelvis_rotation	pelvis_tx	pelvis_ty	pelvis_tz	hip_flexion_r	hip_adduction_r	hip_rotation_r	knee_angle_r	ankle_angle_r	subtalar_angle_r	mtp_angle_r	hip_flexion_l	hip_adduction_l	hip_rotation_l	knee_angle_l	ankle_angle_l	subtalar_angle_l	mtp_angle_l	lumbar_extension	lumbar_bending	lumbar_rotation
      1.40850000	     -0.58474911	     -4.31809247	    -14.26521092	      0.98130211	      0.96993871	      0.32712963	    -25.85686892	      3.06271022	     11.99851893	     -6.53982972	     14.21143576	      0.38047455	      8.14408586	     31.35985560	     -9.18173291	     -6.57253131	     -2.07489371	     11.94644011	     -9.43371825	     -3.16090333	     -0.80547454	      2.22388285	     12.78555555
      1.41266667	     -0.65941773	     -4.20379967	    -14.44318158	      0.98797018	      0.96866444	      0.32699158	    -25.98962535	      2.78945273	     11.88367843	     -6.79388682	     14.04349814	      0.57055224	      8.29230332	     31.44960889	     -9.11913614	     -6.40636644	     -2.66631623	     12.00639576	     -9.76519029	     -3.05670224	     -0.61445108	      2.11848544	     12.94723281
      1.41683333	     -0.70415935	     -4.07243210	    -14.62442507	      0.99469421	      0.96746644	      0.32684386	    -26.15429597	      2.49055550	     11.82159022	     -7.03412260	     13.80165822	      0.65143514	      8.33705220	     31.50119423	     -9.03446972	     -6.34879545	     -3.26663365	     12.07571083	     -9.97828263	     -3.01757009	     -0.48247127	      2.00452367	     12.97986513
      1.42100000	     -0.78467174	     -3.94302675	    -14.76597573	      1.00148771	      0.96620257	      0.32663312	    -26.26051979	      2.21911499	     11.63871455	     -7.31666458	     13.53238019	      0.81931451	     10.92692778	     31.58968933	     -8.92836693	     -6.13571466	     -3.84765369	     11.92759212	    -10.46367467	     -1.19045824	     -0.25171113	      1.87159493	     13.04763870
      1.42516667	     -0.83337207	     -3.79490939	    -14.90393948	      1.00833437	      0.96501957	      0.32641394	    -26.40023273	      1.92420724	     11.48568217	     -7.58878038	     13.22611407	      0.91364253	     10.94355207	     31.66282563	     -8.80217196	     -6.09919474	     -4.48201272	     11.87331141	    -10.64048693	     -1.17155475	     -0.06159206	      1.71628846	     13.14082529
      1.42933333	     -0.91956384	     -3.62753642	    -15.02122849	      1.01521519	      0.96379557	      0.32614344	    -26.46975914	      1.63050575	     11.26753760	     -7.91932195	     12.99981462	      1.12222676	     11.04683695	     31.77608480	     -8.64536762	     -5.98067446	     -5.10063549	     11.65006758	    -10.99146264	     -1.08996613	      0.17219647	      1.54776433	     13.29307780
      1.43350000	     -0.96570787	     -3.46402855	    -15.12596269	      1.02214351	      0.96265670	      0.32584244	    -26.57389788	      1.33799975	     11.04393181	     -8.25826693	     12.62907478	      1.18785713	     11.10233155	     31.85766132	     -8.48044584	     -5.95168303	     -5.74375063	     11.46604804	    -11.21995122	     -1.04296024	      0.37694958	      1.38283280	     13.31529342
      1.43766667	     -1.06288934	     -3.27135279	    -15.21143096	      1.02911673	      0.96146748	      0.32546936	    -26.58075821	      1.03776336	     10.73066877	     -8.67916387	     12.39115555	      1.42928601	     11.39190390	     31.98805765	     -8.27088775	     -5.77061210	     -6.35508033	     11.04168662	    -11.77881321	     -0.82329478	      0.63623447	      1.20868418	     13.38357476
      1.44183333	     -1.10241327	     -3.07750529	    -15.27499552	      1.03613741	      0.96039696	      0.32510988	    -26.66998721	      0.73664190	     10.46930431	     -9.04145813	     11.93122259	      1.44792007	     11.46854751	     32.09276721	     -8.05680528	     -5.80165895	     -7.03647679	     10.73208159	    -11.90373805	     -0.76118165	      0.84330182	      0.99394228	     13.38935122
      1.44600000	     -1.20970343	     -2.85795960	    -15.30558447	      1.04318339	      0.95923217	      0.32462877	    -26.62733758	      0.44055754	     10.06846824	     -9.52582620	     11.63191470	      1.66973365	     11.97530915	     32.27871846	     -7.79220349	     -5.61013917	     -7.70380780	     10.17132891	    -12.48578092	     -0.38656696	      1.13206889	      0.78552196	     13.37807359
      1.45016667	     -1.24043670	     -2.64165489	    -15.31045028	      1.05025075	      0.95822247	      0.32415716	    -26.69290025	      0.14590844	      9.73500580	     -9.93831312	     11.09148045	      1.64604884	     12.06331301	     32.42899655	     -7.52663427	     -5.65395338	     -8.46631279	      9.76605988	    -12.53999745	     -0.32049317	      1.32465563	      0.54991434	     13.37785676
      1.45433333	     -1.31725975	     -2.39483692	    -15.29224924	      1.05739125	      0.95716989	      0.32361830	    -26.67275246	     -0.15888596	      9.31199057	    -10.40605989	     10.51289375	      1.67837254	     16.54454658	     32.62892698	     -7.21432054	     -5.54749969	     -9.19889507	      9.08906428	    -12.97073919	      2.72547561	      1.60089659	      0.26883397	     13.33770888
      1.45850000	     -1.38935910	     -2.14195921	    -15.24624702	      1.06450255	      0.95615430	      0.32303825	    -26.63535538	     -0.45279043	      8.87593807	    -10.92408694	     10.00515314	      1.74309446	     16.58806932	     32.87678600	     -6.89340280	     -5.53230710	    -10.03378469	      8.57815048	    -13.10733946	      2.73663486	      1.86240543	     -0.02696319	     13.27495779
      1.46266667	     -1.44871933	     -1.87685387	    -15.17342582	      1.07165957	      0.95520492	      0.32240654	    -26.59253667	     -0.74975565	      8.38886119	    -11.46938313	      9.42867967	      1.78052184	     16.65596223	     33.12941460	     -6.54345973	     -5.50225432	    -10.89940850	      8.02020315	    -13.24726688	      2.76367490	      2.12050844	     -0.33291769	     13.21490003
      1.46683333	     -1.52902680	     -1.60056317	    -15.06720215	      1.07881068	      0.95424389	      0.32165942	    -26.47867125	     -1.04328717	      7.78696602	    -12.11154221	      8.91880287	      1.90102351	     16.89758768	     33.42991166	     -6.15732118	     -5.36793282	    -11.80190011	      7.41065804	    -13.58115895	      2.86192754	      2.40793769	     -0.60965665	     13.05089727
      1.47100000	     -1.48805033	     -1.28850674	    -14.90520440	      1.08601909	      0.95348621	      0.32086553	    -26.51695960	     -1.37955211	      7.14106206	    -12.67575808	      8.22387862	      1.92240117	     19.07052826	     33.60613880	     -5.67745689	     -5.19032370	    -12.68852983	      6.73479633	    -13.91670793	      3.74463887	      2.54585433	     -1.01936629	     12.98634669
      1.47516667	     -1.57480303	     -1.01733887	    -14.75880219	      1.09317827	      0.95260571	      0.32008759	    -26.38609295	     -1.64084849	      6.58805195	    -13.32138140	      7.48027654	      1.90522585	     19.13375619	     33.99692416	     -5.30457651	     -5.19152713	    -13.77443872	      6.32514240	    -13.82545184	      3.76372894	      2.83169192	     -1.33536496	     12.88595169
      1.47933333	     -1.58381378	     -0.73814558	    -14.56129962	      1.10034871	      0.95186033	      0.31920361	    -26.32008533	     -1.91309785	      5.92059635	    -13.99717281	      6.72507424	      1.84951404	     19.18628226	     34.31570126	     -4.87377962	     -5.14831294	    -14.87221202	      5.92808793	    -13.78916766	      3.77986453	      3.03681715	     -1.64034486	     12.80676345
      1.48350000	     -1.65061835	     -0.41701903	    -14.34605912	      1.10755279	      0.95105408	      0.31825622	    -26.14862936	     -2.21550299	      5.18029565	    -14.74985284	      6.04467479	      1.98504182	     19.52274741	     34.71555602	     -4.39573402	     -5.03205308	    -16.00943014	      5.55067847	    -13.88368312	      3.87130311	      3.29732208	     -2.03762979	     12.42947724
      1.48766667	     -1.58977893	     -0.09808442	    -14.07954682	      1.11478352	      0.95047948	      0.31724292	    -26.14029768	     -2.52739556	      4.39193533	    -15.41920482	      5.07825171	      1.92111470	     23.64996811	     34.96708644	     -3.85825247	     -4.86511366	    -17.11659637	      5.13739152	    -13.98678181	      4.82189672	      3.39899373	     -2.46196768	     12.31442362
      1.49183333	     -1.57740436	      0.22252185	    -13.83569171	      1.12200506	      0.94989025	      0.31624557	    -26.03415906	     -2.84168235	      3.62578594	    -16.18441427	      4.18369005	      1.92751140	     23.71002693	     35.30103468	     -3.36417540	     -4.85847731	    -18.31699926	      4.92618648	    -13.85288770	      4.82127195	      3.57897778	     -2.86816824	     12.13762256
      1.49600000	     -1.51452442	      0.54822454	    -13.55904179	      1.12924456	      0.94940590	      0.31518405	    -25.97484228	     -3.16666379	      2.79610415	    -16.95685022	      3.23920173	      1.93704316	     23.85509457	     35.57349996	     -2.83043613	     -4.80258023	    -19.50454403	      4.74070367	    -13.73520041	      4.83050933	      3.68668384	     -3.29671361	     11.93028867
      1.50016667	     -1.43976775	      0.84596320	    -13.27035482	      1.13644749	      0.94900942	      0.31407348	    -25.91414495	     -3.46625871	      1.97163208	    -17.74734483	      2.18885018	      1.89553913	     23.89978679	     35.82044530	     -2.30909895	     -4.72421151	    -20.68206762	      4.57077918	    -13.66222463	      4.83383450	      3.78373022	     -3.67129517	     11.87904425
      1.50433333	     -1.36224338	      1.18794979	    -12.93769225	      1.14372886	      0.94862563	      0.31288246	    -25.84622300	     -3.80532694	      1.05071106	    -18.54716455	      1.09921702	      1.87841833	     26.78394301	     36.05663472	     -1.71379957	     -4.61171199	    -21.83895388	      4.41185151	    -13.61121881	      4.79620739	      3.84632386	     -4.14384671	     11.40143788
      1.50850000	     -1.17321688	      1.52414496	    -12.64015016	      1.15095885	      0.94848455	      0.31173190	    -25.87626358	     -4.18500628	      0.13745859	    -19.36424938	     -0.04742403	      1.87716929	     26.84896019	     36.14224888	     -1.13123049	     -4.61036807	    -22.95199802	      4.40989088	    -13.44506822	      4.79715949	      3.79038551	     -4.62347105	     11.38054791
      1.51266667	     -1.01384251	      1.85090299	    -12.32229714	      1.15819956	      0.94835682	      0.31052191	    -25.85822609	     -4.54988305	     -0.79643735	    -20.21313688	     -1.23749640	      1.85606623	     26.95738374	     36.23451800	     -0.54756209	     -4.57879428	    -24.02561668	      4.37277467	    -13.30856083	      4.79152558	      3.77680387	     -5.07420663	     11.20791446
      1.51683333	     -0.83950241	      2.17617267	    -12.00464392	      1.16543415	      0.94831598	      0.30928938	    -25.84015146	     -4.92612962	     -1.73734010	    -21.07694798	     -2.49321551	      1.81839064	     27.08653424	     36.27874187	      0.04131781	     -4.55379054	    -25.05357713	      4.36406841	    -13.17191365	      4.77982315	      3.72902628	     -5.52106412	     11.03613431
      1.52100000	     -0.65371310	      2.49108564	    -11.67541700	      1.17264125	      0.94835758	      0.30801814	    -25.81846163	     -5.30022993	     -2.69469268	    -21.96138280	     -3.81032506	      1.76787819	     27.23072572	     36.27327285	      0.63138550	     -4.52411171	    -26.00949972	      4.35395936	    -13.05013240	      4.76015374	      3.66375077	     -5.95568923	     10.84601224
      1.52516667	     -0.45630553	      2.79315453	    -11.36293991	      1.17980321	      0.94849384	      0.30673986	    -25.78583113	     -5.68238236	     -3.63556281	    -22.87042834	     -5.17778386	      1.69600881	     27.38450409	     36.21805717	      1.20386047	     -4.51518513	    -26.90837473	      4.36668147	    -12.91145868	      4.73396507	      3.56764374	     -6.37301856	     10.68377123
